<mxfile host="app.diagrams.net" modified="2023-06-04T09:16:57.348Z" agent="Mozilla/5.0 (X11; Linux x86_64) AppleWebKit/537.36 (KHTML, like Gecko) Chrome/109.0.0.0 Safari/537.36" etag="uzlZpNNXHcU5gd5Np1ir" version="21.3.7" type="device">
  <diagram name="Page-1" id="GelzilxIYvbJAZWgpvDX">
    <mxGraphModel dx="743" dy="774" grid="1" gridSize="10" guides="1" tooltips="1" connect="1" arrows="1" fold="1" page="1" pageScale="1" pageWidth="1920" pageHeight="1200" math="0" shadow="0">
      <root>
        <mxCell id="0" />
        <mxCell id="1" parent="0" />
        <mxCell id="rTUu50e-VnVk6WECUL6u-4" value="1. Закрыты" style="rounded=0;whiteSpace=wrap;html=1;" parent="1" vertex="1">
          <mxGeometry x="110" y="110" width="120" height="60" as="geometry" />
        </mxCell>
        <mxCell id="rTUu50e-VnVk6WECUL6u-5" value="3. Открыты" style="rounded=0;whiteSpace=wrap;html=1;" parent="1" vertex="1">
          <mxGeometry x="350" y="270" width="120" height="60" as="geometry" />
        </mxCell>
        <mxCell id="rTUu50e-VnVk6WECUL6u-6" value="4. Закрываются" style="rounded=0;whiteSpace=wrap;html=1;" parent="1" vertex="1">
          <mxGeometry x="110" y="270" width="120" height="60" as="geometry" />
        </mxCell>
        <mxCell id="rTUu50e-VnVk6WECUL6u-7" value="2. Открываются" style="rounded=0;whiteSpace=wrap;html=1;" parent="1" vertex="1">
          <mxGeometry x="350" y="110" width="120" height="60" as="geometry" />
        </mxCell>
        <mxCell id="rTUu50e-VnVk6WECUL6u-11" value="&lt;b&gt;&lt;font style=&quot;font-size: 24px;&quot;&gt;Двери&lt;/font&gt;&lt;/b&gt;" style="text;html=1;strokeColor=none;fillColor=none;align=center;verticalAlign=middle;whiteSpace=wrap;rounded=0;" parent="1" vertex="1">
          <mxGeometry x="260" y="20" width="60" height="30" as="geometry" />
        </mxCell>
        <mxCell id="rTUu50e-VnVk6WECUL6u-12" value="&lt;b&gt;&lt;font style=&quot;font-size: 24px;&quot;&gt;Кабина&lt;/font&gt;&lt;/b&gt;" style="text;html=1;strokeColor=none;fillColor=none;align=center;verticalAlign=middle;whiteSpace=wrap;rounded=0;" parent="1" vertex="1">
          <mxGeometry x="670" y="20" width="60" height="30" as="geometry" />
        </mxCell>
        <mxCell id="rTUu50e-VnVk6WECUL6u-14" value="&lt;b&gt;&lt;font style=&quot;font-size: 24px;&quot;&gt;Контроллер&lt;/font&gt;&lt;/b&gt;" style="text;html=1;strokeColor=none;fillColor=none;align=center;verticalAlign=middle;whiteSpace=wrap;rounded=0;" parent="1" vertex="1">
          <mxGeometry x="980" y="20" width="60" height="30" as="geometry" />
        </mxCell>
        <mxCell id="rTUu50e-VnVk6WECUL6u-36" value="" style="endArrow=classic;html=1;rounded=0;strokeWidth=2;endSize=3;jumpSize=6;startSize=6;" parent="1" source="rTUu50e-VnVk6WECUL6u-4" target="rTUu50e-VnVk6WECUL6u-7" edge="1">
          <mxGeometry relative="1" as="geometry">
            <mxPoint x="530" y="419" as="sourcePoint" />
            <mxPoint x="630" y="419" as="targetPoint" />
          </mxGeometry>
        </mxCell>
        <mxCell id="rTUu50e-VnVk6WECUL6u-37" value="Открыть двери" style="edgeLabel;resizable=0;html=1;align=center;verticalAlign=middle;" parent="rTUu50e-VnVk6WECUL6u-36" connectable="0" vertex="1">
          <mxGeometry relative="1" as="geometry">
            <mxPoint y="-19" as="offset" />
          </mxGeometry>
        </mxCell>
        <mxCell id="rTUu50e-VnVk6WECUL6u-38" value="" style="endArrow=classic;html=1;rounded=0;strokeWidth=2;endSize=3;jumpSize=6;startSize=6;" parent="1" source="rTUu50e-VnVk6WECUL6u-7" target="rTUu50e-VnVk6WECUL6u-5" edge="1">
          <mxGeometry relative="1" as="geometry">
            <mxPoint x="530" y="419" as="sourcePoint" />
            <mxPoint x="630" y="419" as="targetPoint" />
          </mxGeometry>
        </mxCell>
        <mxCell id="rTUu50e-VnVk6WECUL6u-39" value="Таймер" style="edgeLabel;resizable=0;html=1;align=center;verticalAlign=middle;" parent="rTUu50e-VnVk6WECUL6u-38" connectable="0" vertex="1">
          <mxGeometry relative="1" as="geometry">
            <mxPoint x="30" as="offset" />
          </mxGeometry>
        </mxCell>
        <mxCell id="rTUu50e-VnVk6WECUL6u-40" value="" style="endArrow=classic;html=1;rounded=0;strokeWidth=2;endSize=3;jumpSize=6;startSize=6;" parent="1" source="rTUu50e-VnVk6WECUL6u-5" target="rTUu50e-VnVk6WECUL6u-6" edge="1">
          <mxGeometry relative="1" as="geometry">
            <mxPoint x="530" y="419" as="sourcePoint" />
            <mxPoint x="630" y="419" as="targetPoint" />
          </mxGeometry>
        </mxCell>
        <mxCell id="rTUu50e-VnVk6WECUL6u-41" value="&lt;div&gt;Таймер /&lt;/div&gt;&lt;div&gt;Закрыть двери&lt;/div&gt;" style="edgeLabel;resizable=0;html=1;align=center;verticalAlign=middle;" parent="rTUu50e-VnVk6WECUL6u-40" connectable="0" vertex="1">
          <mxGeometry relative="1" as="geometry">
            <mxPoint y="-19" as="offset" />
          </mxGeometry>
        </mxCell>
        <mxCell id="rTUu50e-VnVk6WECUL6u-42" value="" style="endArrow=classic;html=1;rounded=0;strokeWidth=2;endSize=3;jumpSize=6;startSize=6;" parent="1" source="rTUu50e-VnVk6WECUL6u-6" target="rTUu50e-VnVk6WECUL6u-4" edge="1">
          <mxGeometry relative="1" as="geometry">
            <mxPoint x="530" y="419" as="sourcePoint" />
            <mxPoint x="630" y="419" as="targetPoint" />
          </mxGeometry>
        </mxCell>
        <mxCell id="rTUu50e-VnVk6WECUL6u-43" value="Таймер" style="edgeLabel;resizable=0;html=1;align=center;verticalAlign=middle;" parent="rTUu50e-VnVk6WECUL6u-42" connectable="0" vertex="1">
          <mxGeometry relative="1" as="geometry">
            <mxPoint x="-40" as="offset" />
          </mxGeometry>
        </mxCell>
        <mxCell id="rTUu50e-VnVk6WECUL6u-46" value="" style="endArrow=classic;html=1;rounded=0;strokeWidth=2;endSize=3;jumpSize=6;startSize=6;" parent="1" target="rTUu50e-VnVk6WECUL6u-4" edge="1">
          <mxGeometry relative="1" as="geometry">
            <mxPoint x="170" y="60" as="sourcePoint" />
            <mxPoint x="140" y="70" as="targetPoint" />
          </mxGeometry>
        </mxCell>
        <mxCell id="rTUu50e-VnVk6WECUL6u-48" value="" style="endArrow=classic;html=1;rounded=0;strokeWidth=2;endSize=3;jumpSize=6;startSize=6;" parent="1" target="bNqoMCdfTvyK1TY6Nngm-2" edge="1">
          <mxGeometry relative="1" as="geometry">
            <mxPoint x="700" y="60" as="sourcePoint" />
            <mxPoint x="699.9999999999998" y="110" as="targetPoint" />
          </mxGeometry>
        </mxCell>
        <mxCell id="rTUu50e-VnVk6WECUL6u-66" value="2. Нажата" style="rounded=0;whiteSpace=wrap;html=1;" parent="1" vertex="1">
          <mxGeometry x="110" y="420.06" width="120" height="60" as="geometry" />
        </mxCell>
        <mxCell id="rTUu50e-VnVk6WECUL6u-67" value="1. Не нажата" style="rounded=0;whiteSpace=wrap;html=1;" parent="1" vertex="1">
          <mxGeometry x="350" y="420.06" width="120" height="60" as="geometry" />
        </mxCell>
        <mxCell id="rTUu50e-VnVk6WECUL6u-68" value="&lt;b&gt;&lt;font style=&quot;font-size: 24px;&quot;&gt;Кнопка&lt;/font&gt;&lt;/b&gt;" style="text;html=1;strokeColor=none;fillColor=none;align=center;verticalAlign=middle;whiteSpace=wrap;rounded=0;" parent="1" vertex="1">
          <mxGeometry x="260" y="340.06" width="60" height="30" as="geometry" />
        </mxCell>
        <mxCell id="rTUu50e-VnVk6WECUL6u-69" value="" style="endArrow=classic;html=1;rounded=0;strokeWidth=2;endSize=3;jumpSize=6;startSize=6;" parent="1" source="rTUu50e-VnVk6WECUL6u-67" target="rTUu50e-VnVk6WECUL6u-66" edge="1">
          <mxGeometry relative="1" as="geometry">
            <mxPoint x="730" y="249.06" as="sourcePoint" />
            <mxPoint x="830" y="249.06" as="targetPoint" />
            <Array as="points">
              <mxPoint x="290" y="430.06" />
            </Array>
          </mxGeometry>
        </mxCell>
        <mxCell id="rTUu50e-VnVk6WECUL6u-70" value="Кнопку нажали" style="edgeLabel;resizable=0;html=1;align=center;verticalAlign=middle;" parent="rTUu50e-VnVk6WECUL6u-69" connectable="0" vertex="1">
          <mxGeometry relative="1" as="geometry">
            <mxPoint y="-19" as="offset" />
          </mxGeometry>
        </mxCell>
        <mxCell id="rTUu50e-VnVk6WECUL6u-71" value="" style="endArrow=classic;html=1;rounded=0;strokeWidth=2;endSize=3;jumpSize=6;startSize=6;" parent="1" source="rTUu50e-VnVk6WECUL6u-66" target="rTUu50e-VnVk6WECUL6u-67" edge="1">
          <mxGeometry relative="1" as="geometry">
            <mxPoint x="730" y="249.06" as="sourcePoint" />
            <mxPoint x="830" y="249.06" as="targetPoint" />
            <Array as="points">
              <mxPoint x="290" y="470.06" />
            </Array>
          </mxGeometry>
        </mxCell>
        <mxCell id="rTUu50e-VnVk6WECUL6u-72" value="Кнопку обработали" style="edgeLabel;resizable=0;html=1;align=center;verticalAlign=middle;" parent="rTUu50e-VnVk6WECUL6u-71" connectable="0" vertex="1">
          <mxGeometry relative="1" as="geometry">
            <mxPoint y="20" as="offset" />
          </mxGeometry>
        </mxCell>
        <mxCell id="rTUu50e-VnVk6WECUL6u-73" value="" style="endArrow=classic;html=1;rounded=0;strokeWidth=2;endSize=3;jumpSize=6;startSize=6;" parent="1" target="rTUu50e-VnVk6WECUL6u-67" edge="1">
          <mxGeometry relative="1" as="geometry">
            <mxPoint x="410" y="370.06" as="sourcePoint" />
            <mxPoint x="830" y="249.06" as="targetPoint" />
          </mxGeometry>
        </mxCell>
        <mxCell id="rTUu50e-VnVk6WECUL6u-78" value="" style="endArrow=classic;html=1;rounded=0;strokeWidth=2;endSize=3;jumpSize=6;startSize=6;" parent="1" target="bNqoMCdfTvyK1TY6Nngm-19" edge="1">
          <mxGeometry relative="1" as="geometry">
            <mxPoint x="1010" y="60" as="sourcePoint" />
            <mxPoint x="1010" y="110" as="targetPoint" />
          </mxGeometry>
        </mxCell>
        <mxCell id="bNqoMCdfTvyK1TY6Nngm-2" value="1. Простаивает" style="rounded=0;whiteSpace=wrap;html=1;" vertex="1" parent="1">
          <mxGeometry x="640" y="110" width="120" height="60" as="geometry" />
        </mxCell>
        <mxCell id="bNqoMCdfTvyK1TY6Nngm-3" value="3. Ожидает (входа /выхода)" style="rounded=0;whiteSpace=wrap;html=1;" vertex="1" parent="1">
          <mxGeometry x="640" y="430" width="120" height="60" as="geometry" />
        </mxCell>
        <mxCell id="bNqoMCdfTvyK1TY6Nngm-4" value="2.1. Движется ввверх" style="rounded=0;whiteSpace=wrap;html=1;" vertex="1" parent="1">
          <mxGeometry x="530" y="270" width="120" height="60" as="geometry" />
        </mxCell>
        <mxCell id="bNqoMCdfTvyK1TY6Nngm-5" value="2.2. Движется вниз" style="rounded=0;whiteSpace=wrap;html=1;" vertex="1" parent="1">
          <mxGeometry x="750" y="270" width="120" height="60" as="geometry" />
        </mxCell>
        <mxCell id="bNqoMCdfTvyK1TY6Nngm-7" value="" style="endArrow=classic;html=1;rounded=0;strokeWidth=2;endSize=3;jumpSize=6;startSize=6;" edge="1" parent="1" source="bNqoMCdfTvyK1TY6Nngm-2" target="bNqoMCdfTvyK1TY6Nngm-4">
          <mxGeometry relative="1" as="geometry">
            <mxPoint x="840" y="115" as="sourcePoint" />
            <mxPoint x="839.9999999999998" y="165" as="targetPoint" />
          </mxGeometry>
        </mxCell>
        <mxCell id="bNqoMCdfTvyK1TY6Nngm-8" value="" style="endArrow=classic;html=1;rounded=0;strokeWidth=2;endSize=3;jumpSize=6;startSize=6;" edge="1" parent="1" source="bNqoMCdfTvyK1TY6Nngm-2" target="bNqoMCdfTvyK1TY6Nngm-5">
          <mxGeometry relative="1" as="geometry">
            <mxPoint x="716" y="200" as="sourcePoint" />
            <mxPoint x="650" y="290" as="targetPoint" />
          </mxGeometry>
        </mxCell>
        <mxCell id="bNqoMCdfTvyK1TY6Nngm-9" value="" style="endArrow=classic;html=1;rounded=0;strokeWidth=2;endSize=3;jumpSize=6;startSize=6;" edge="1" parent="1" source="bNqoMCdfTvyK1TY6Nngm-4" target="bNqoMCdfTvyK1TY6Nngm-3">
          <mxGeometry relative="1" as="geometry">
            <mxPoint x="716" y="305" as="sourcePoint" />
            <mxPoint x="650" y="395" as="targetPoint" />
          </mxGeometry>
        </mxCell>
        <mxCell id="bNqoMCdfTvyK1TY6Nngm-10" value="" style="endArrow=classic;html=1;rounded=0;strokeWidth=2;endSize=3;jumpSize=6;startSize=6;" edge="1" parent="1" source="bNqoMCdfTvyK1TY6Nngm-5" target="bNqoMCdfTvyK1TY6Nngm-3">
          <mxGeometry relative="1" as="geometry">
            <mxPoint x="680" y="330" as="sourcePoint" />
            <mxPoint x="748" y="430" as="targetPoint" />
          </mxGeometry>
        </mxCell>
        <mxCell id="bNqoMCdfTvyK1TY6Nngm-11" value="Двигаться вверх" style="text;html=1;strokeColor=none;fillColor=none;align=center;verticalAlign=middle;whiteSpace=wrap;rounded=0;" vertex="1" parent="1">
          <mxGeometry x="570" y="200" width="60" height="30" as="geometry" />
        </mxCell>
        <mxCell id="bNqoMCdfTvyK1TY6Nngm-12" value="Двигаться вниз" style="text;html=1;strokeColor=none;fillColor=none;align=center;verticalAlign=middle;whiteSpace=wrap;rounded=0;" vertex="1" parent="1">
          <mxGeometry x="770" y="200" width="60" height="30" as="geometry" />
        </mxCell>
        <mxCell id="bNqoMCdfTvyK1TY6Nngm-13" value="Остановиться" style="text;html=1;strokeColor=none;fillColor=none;align=center;verticalAlign=middle;whiteSpace=wrap;rounded=0;" vertex="1" parent="1">
          <mxGeometry x="570" y="370" width="60" height="30" as="geometry" />
        </mxCell>
        <mxCell id="bNqoMCdfTvyK1TY6Nngm-14" value="Остановиться" style="text;html=1;strokeColor=none;fillColor=none;align=center;verticalAlign=middle;whiteSpace=wrap;rounded=0;" vertex="1" parent="1">
          <mxGeometry x="770" y="370" width="60" height="30" as="geometry" />
        </mxCell>
        <mxCell id="bNqoMCdfTvyK1TY6Nngm-17" value="" style="endArrow=classic;html=1;rounded=0;strokeWidth=2;endSize=2;" edge="1" parent="1" source="bNqoMCdfTvyK1TY6Nngm-3" target="bNqoMCdfTvyK1TY6Nngm-2">
          <mxGeometry relative="1" as="geometry">
            <mxPoint x="620" y="560" as="sourcePoint" />
            <mxPoint x="720" y="560" as="targetPoint" />
          </mxGeometry>
        </mxCell>
        <mxCell id="bNqoMCdfTvyK1TY6Nngm-18" value="Таймер" style="edgeLabel;resizable=0;html=1;align=center;verticalAlign=middle;fontSize=12;" connectable="0" vertex="1" parent="bNqoMCdfTvyK1TY6Nngm-17">
          <mxGeometry relative="1" as="geometry" />
        </mxCell>
        <mxCell id="bNqoMCdfTvyK1TY6Nngm-19" value="1. Простаивает" style="rounded=0;whiteSpace=wrap;html=1;" vertex="1" parent="1">
          <mxGeometry x="950" y="110" width="120" height="60" as="geometry" />
        </mxCell>
        <mxCell id="bNqoMCdfTvyK1TY6Nngm-20" value="2. Обновляет вектор активированных кнопок и цель" style="rounded=0;whiteSpace=wrap;html=1;" vertex="1" parent="1">
          <mxGeometry x="950" y="270" width="120" height="60" as="geometry" />
        </mxCell>
        <mxCell id="bNqoMCdfTvyK1TY6Nngm-21" value="3. Обслуживает" style="rounded=0;whiteSpace=wrap;html=1;" vertex="1" parent="1">
          <mxGeometry x="950" y="430" width="120" height="60" as="geometry" />
        </mxCell>
        <mxCell id="bNqoMCdfTvyK1TY6Nngm-22" value="" style="endArrow=classic;html=1;rounded=0;strokeWidth=2;endSize=2;" edge="1" parent="1">
          <mxGeometry relative="1" as="geometry">
            <mxPoint x="1040" y="170" as="sourcePoint" />
            <mxPoint x="1040" y="270" as="targetPoint" />
          </mxGeometry>
        </mxCell>
        <mxCell id="bNqoMCdfTvyK1TY6Nngm-23" value="Нажата / отменена&lt;br&gt;кнопка (в лифте /&lt;br&gt;на этаже)" style="edgeLabel;resizable=0;html=1;align=center;verticalAlign=middle;fontSize=12;" connectable="0" vertex="1" parent="bNqoMCdfTvyK1TY6Nngm-22">
          <mxGeometry relative="1" as="geometry">
            <mxPoint x="60" as="offset" />
          </mxGeometry>
        </mxCell>
        <mxCell id="bNqoMCdfTvyK1TY6Nngm-24" value="" style="endArrow=classic;html=1;rounded=0;strokeWidth=2;endSize=2;" edge="1" parent="1">
          <mxGeometry relative="1" as="geometry">
            <mxPoint x="979" y="330" as="sourcePoint" />
            <mxPoint x="979" y="430" as="targetPoint" />
          </mxGeometry>
        </mxCell>
        <mxCell id="bNqoMCdfTvyK1TY6Nngm-25" value="Цель есть" style="edgeLabel;resizable=0;html=1;align=center;verticalAlign=middle;fontSize=12;" connectable="0" vertex="1" parent="bNqoMCdfTvyK1TY6Nngm-24">
          <mxGeometry relative="1" as="geometry">
            <mxPoint x="1" as="offset" />
          </mxGeometry>
        </mxCell>
        <mxCell id="bNqoMCdfTvyK1TY6Nngm-26" value="" style="endArrow=classic;html=1;rounded=0;strokeWidth=2;endSize=2;" edge="1" parent="1">
          <mxGeometry relative="1" as="geometry">
            <mxPoint x="1040" y="430" as="sourcePoint" />
            <mxPoint x="1040" y="330" as="targetPoint" />
          </mxGeometry>
        </mxCell>
        <mxCell id="bNqoMCdfTvyK1TY6Nngm-27" value="Нажата / отменена&lt;br style=&quot;border-color: var(--border-color);&quot;&gt;кнопка (в лифте /&lt;br style=&quot;border-color: var(--border-color);&quot;&gt;на этаже)&lt;br&gt;/ цель обслужена" style="edgeLabel;resizable=0;html=1;align=center;verticalAlign=middle;fontSize=12;" connectable="0" vertex="1" parent="bNqoMCdfTvyK1TY6Nngm-26">
          <mxGeometry relative="1" as="geometry">
            <mxPoint x="60" y="5" as="offset" />
          </mxGeometry>
        </mxCell>
        <mxCell id="bNqoMCdfTvyK1TY6Nngm-30" value="" style="endArrow=classic;html=1;rounded=0;strokeWidth=2;endSize=2;" edge="1" parent="1">
          <mxGeometry relative="1" as="geometry">
            <mxPoint x="980" y="270" as="sourcePoint" />
            <mxPoint x="980" y="170" as="targetPoint" />
          </mxGeometry>
        </mxCell>
        <mxCell id="bNqoMCdfTvyK1TY6Nngm-31" value="Цели нет" style="edgeLabel;resizable=0;html=1;align=center;verticalAlign=middle;fontSize=12;" connectable="0" vertex="1" parent="bNqoMCdfTvyK1TY6Nngm-30">
          <mxGeometry relative="1" as="geometry">
            <mxPoint x="1" as="offset" />
          </mxGeometry>
        </mxCell>
      </root>
    </mxGraphModel>
  </diagram>
</mxfile>
